<svg width="21" height="21" viewBox="0 0 21 21" fill="none" xmlns="http://www.w3.org/2000/svg">
<path d="M13.6463 2.1665H6.66296C3.62962 2.1665 1.82129 3.97484 1.82129 7.00817V13.9832C1.82129 17.0248 3.62962 18.8332 6.66296 18.8332H13.638C16.6713 18.8332 18.4796 17.0248 18.4796 13.9915V7.00817C18.488 3.97484 16.6796 2.1665 13.6463 2.1665ZM14.138 8.58317L9.41296 13.3082C9.29629 13.4248 9.13796 13.4915 8.97129 13.4915C8.80462 13.4915 8.64629 13.4248 8.52962 13.3082L6.17129 10.9498C5.92962 10.7082 5.92962 10.3082 6.17129 10.0665C6.41296 9.82484 6.81296 9.82484 7.05462 10.0665L8.97129 11.9832L13.2546 7.69984C13.4963 7.45817 13.8963 7.45817 14.138 7.69984C14.3796 7.9415 14.3796 8.33317 14.138 8.58317Z" fill="#007BFF"/>
</svg>
