<svg width="51" height="52" viewBox="0 0 51 52" fill="none" xmlns="http://www.w3.org/2000/svg">
<path d="M14.5436 2.73645C14.5436 2.23783 14.3459 1.75965 13.9939 1.40708C13.642 1.05451 13.1646 0.856445 12.6668 0.856445C12.1691 0.856445 11.6917 1.05451 11.3397 1.40708C10.9877 1.75965 10.79 2.23783 10.79 2.73645V6.69699C7.18657 6.98528 4.82433 7.69216 3.08766 9.43426C1.34849 11.1739 0.642814 13.5427 0.352539 17.1498H50.0052C49.7149 13.5402 49.0092 11.1739 47.27 9.43426C45.5333 7.69216 43.1686 6.98528 39.5677 6.69445V2.73645C39.5677 2.23783 39.3699 1.75965 39.0179 1.40708C38.666 1.05451 38.1886 0.856445 37.6909 0.856445C37.1931 0.856445 36.7157 1.05451 36.3638 1.40708C36.0118 1.75965 35.8141 2.23783 35.8141 2.73645V6.52901C34.15 6.49648 32.2831 6.49648 30.1837 6.49648H20.174C18.0745 6.49648 16.2078 6.49648 14.5436 6.52901V2.73645Z" fill="white"/>
<path fill-rule="evenodd" clip-rule="evenodd" d="M0.155273 26.4798C0.155273 24.3768 0.155273 22.5067 0.187798 20.8398H50.1708C50.2032 22.5067 50.2032 24.3768 50.2032 26.4798V31.4931C50.2032 40.9458 50.2032 45.6734 47.2704 48.6087C44.3401 51.5465 39.6206 51.5465 30.1841 51.5465H20.1744C10.7379 51.5465 6.01839 51.5465 3.08808 48.6087C0.155273 45.6734 0.155273 40.9458 0.155273 31.4931V26.4798ZM37.6913 31.4931C38.3549 31.4931 38.9914 31.2291 39.4607 30.759C39.93 30.2889 40.1937 29.6513 40.1937 28.9865C40.1937 28.3217 39.93 27.6841 39.4607 27.214C38.9914 26.744 38.3549 26.4798 37.6913 26.4798C37.0276 26.4798 36.3911 26.744 35.9218 27.214C35.4525 27.6841 35.1888 28.3217 35.1888 28.9865C35.1888 29.6513 35.4525 30.2889 35.9218 30.759C36.3911 31.2291 37.0276 31.4931 37.6913 31.4931ZM37.6913 41.5198C38.3549 41.5198 38.9914 41.2558 39.4607 40.7857C39.93 40.3156 40.1937 39.678 40.1937 39.0131C40.1937 38.3484 39.93 37.7108 39.4607 37.2407C38.9914 36.7706 38.3549 36.5065 37.6913 36.5065C37.0276 36.5065 36.3911 36.7706 35.9218 37.2407C35.4525 37.7108 35.1888 38.3484 35.1888 39.0131C35.1888 39.678 35.4525 40.3156 35.9218 40.7857C36.3911 41.2558 37.0276 41.5198 37.6913 41.5198ZM27.6816 28.9865C27.6816 29.6513 27.418 30.2889 26.9487 30.759C26.4794 31.2291 25.8429 31.4931 25.1793 31.4931C24.5156 31.4931 23.8791 31.2291 23.4098 30.759C22.9406 30.2889 22.6769 29.6513 22.6769 28.9865C22.6769 28.3217 22.9406 27.6841 23.4098 27.214C23.8791 26.744 24.5156 26.4798 25.1793 26.4798C25.8429 26.4798 26.4794 26.744 26.9487 27.214C27.418 27.6841 27.6816 28.3217 27.6816 28.9865ZM27.6816 39.0131C27.6816 39.678 27.418 40.3156 26.9487 40.7857C26.4794 41.2558 25.8429 41.5198 25.1793 41.5198C24.5156 41.5198 23.8791 41.2558 23.4098 40.7857C22.9406 40.3156 22.6769 39.678 22.6769 39.0131C22.6769 38.3484 22.9406 37.7108 23.4098 37.2407C23.8791 36.7706 24.5156 36.5065 25.1793 36.5065C25.8429 36.5065 26.4794 36.7706 26.9487 37.2407C27.418 37.7108 27.6816 38.3484 27.6816 39.0131ZM12.6672 31.4931C13.331 31.4931 13.9675 31.2291 14.4368 30.759C14.9061 30.2889 15.1697 29.6513 15.1697 28.9865C15.1697 28.3217 14.9061 27.6841 14.4368 27.214C13.9675 26.744 13.331 26.4798 12.6672 26.4798C12.0036 26.4798 11.3671 26.744 10.8978 27.214C10.4285 27.6841 10.1649 28.3217 10.1649 28.9865C10.1649 29.6513 10.4285 30.2889 10.8978 30.759C11.3671 31.2291 12.0036 31.4931 12.6672 31.4931ZM12.6672 41.5198C13.331 41.5198 13.9675 41.2558 14.4368 40.7857C14.9061 40.3156 15.1697 39.678 15.1697 39.0131C15.1697 38.3484 14.9061 37.7108 14.4368 37.2407C13.9675 36.7706 13.331 36.5065 12.6672 36.5065C12.0036 36.5065 11.3671 36.7706 10.8978 37.2407C10.4285 37.7108 10.1649 38.3484 10.1649 39.0131C10.1649 39.678 10.4285 40.3156 10.8978 40.7857C11.3671 41.2558 12.0036 41.5198 12.6672 41.5198Z" fill="white"/>
</svg>
