<svg width="24" height="24" viewBox="0 0 24 24" fill="none" xmlns="http://www.w3.org/2000/svg">
<rect width="24" height="24" rx="5" fill="white"/>
<g clip-path="url(#clip0_1_6216)">
<path fill-rule="evenodd" clip-rule="evenodd" d="M7.10918 12.5195C7.10918 13.4741 5.59487 15 4.6474 15C3.69994 15 2.18561 13.4741 2.18561 12.5195C2.18561 11.5649 3.69994 10.0391 4.6474 10.0391C5.59487 10.0391 7.10918 11.5649 7.10918 12.5195ZM5.6321 12.5195C5.6321 12.9014 5.02635 13.5117 4.6474 13.5117C4.2684 13.5117 3.66268 12.9014 3.66268 12.5195C3.66268 12.1377 4.26843 11.5273 4.6474 11.5273C5.02635 11.5273 5.6321 12.1377 5.6321 12.5195Z" fill="#0065FF"/>
<path d="M9.79017 14.9997C10.7089 14.9997 11.2846 14.4196 11.4593 13.6569H10.4501C10.3272 13.9176 10.1331 14.1132 9.79017 14.1132C9.37612 14.1132 9.07207 13.8134 9.07207 13.2984C9.07207 12.7834 9.37612 12.4835 9.79017 12.4835C10.1331 12.4835 10.3272 12.6791 10.4501 12.9399H11.4593C11.2846 12.1772 10.7089 11.597 9.79017 11.597C8.80678 11.597 8.08868 12.3532 8.08868 13.2984C8.08868 14.2436 8.80678 14.9997 9.79017 14.9997ZM11.8038 14.928H12.7808V10.0391H11.8038V14.928ZM13.8498 11.2255C14.1927 11.2255 14.4645 10.9517 14.4645 10.6127C14.4645 10.2738 14.1927 10 13.8498 10C13.5199 10 13.2417 10.2738 13.2417 10.6127C13.2417 10.9517 13.5199 11.2255 13.8498 11.2255ZM13.3646 14.928H14.3416V11.6688H13.3646V14.928ZM16.4329 14.9997C17.3515 14.9997 17.9273 14.4196 18.102 13.6569H17.0928C16.9698 13.9176 16.7758 14.1132 16.4329 14.1132C16.0188 14.1132 15.7148 13.8134 15.7148 13.2984C15.7148 12.7834 16.0188 12.4835 16.4329 12.4835C16.7758 12.4835 16.9698 12.6791 17.0928 12.9399H18.102C17.9273 12.1772 17.3515 11.597 16.4329 11.597C15.4495 11.597 14.7314 12.3532 14.7314 13.2984C14.7314 14.2436 15.4495 14.9997 16.4329 14.9997ZM20.6268 14.928H21.8106L20.3356 13.142L21.526 11.6688H20.3679L19.4234 12.8356V10.0391H18.4465V14.928H19.4234V13.4744L20.6268 14.928Z" fill="black"/>
</g>
<defs>
<clipPath id="clip0_1_6216">
<rect width="19.625" height="5" fill="white" transform="translate(2.1875 10)"/>
</clipPath>
</defs>
</svg>
