<svg width="20" height="20" viewBox="0 0 20 20" fill="none" xmlns="http://www.w3.org/2000/svg">
<path d="M0.833374 10.0002C0.833374 10.0002 4.16671 3.3335 10 3.3335C15.8334 3.3335 19.1667 10.0002 19.1667 10.0002C19.1667 10.0002 15.8334 16.6668 10 16.6668C4.16671 16.6668 0.833374 10.0002 0.833374 10.0002Z" stroke="#007BFF" stroke-width="1.66667" stroke-linecap="round" stroke-linejoin="round"/>
<path d="M10 7.5C9.33696 7.5 8.70107 7.76339 8.23223 8.23223C7.76339 8.70107 7.5 9.33696 7.5 10C7.5 10.663 7.76339 11.2989 8.23223 11.7678C8.70107 12.2366 9.33696 12.5 10 12.5C10.663 12.5 11.2989 12.2366 11.7678 11.7678C12.2366 11.2989 12.5 10.663 12.5 10C12.5 9.33696 12.2366 8.70107 11.7678 8.23223C11.2989 7.76339 10.663 7.5 10 7.5Z" stroke="#007BFF" stroke-width="1.66667" stroke-linecap="round" stroke-linejoin="round"/>
</svg>
