<svg width="24" height="25" viewBox="0 0 24 25" fill="none" xmlns="http://www.w3.org/2000/svg">
<g clip-path="url(#clip0_1_6407)">
<path d="M14 14.5005H10V21.5005H14V14.5005Z" fill="#A0A0A0"/>
<path d="M20.42 10.6807L12.71 2.80068C12.617 2.70695 12.5064 2.63256 12.3846 2.58179C12.2627 2.53102 12.132 2.50488 12 2.50488C11.868 2.50488 11.7373 2.53102 11.6154 2.58179C11.4936 2.63256 11.383 2.70695 11.29 2.80068L3.57999 10.6907C3.39343 10.8787 3.24609 11.102 3.14652 11.3475C3.04695 11.593 2.99715 11.8558 2.99999 12.1207V20.5007C2.99922 21.0126 3.19477 21.5053 3.54637 21.8774C3.89797 22.2494 4.37885 22.4725 4.88999 22.5007H7.99999V13.5007C7.99999 13.2355 8.10535 12.9811 8.29289 12.7936C8.48042 12.606 8.73478 12.5007 8.99999 12.5007H15C15.2652 12.5007 15.5196 12.606 15.7071 12.7936C15.8946 12.9811 16 13.2355 16 13.5007V22.5007H19.11C19.6211 22.4725 20.102 22.2494 20.4536 21.8774C20.8052 21.5053 21.0008 21.0126 21 20.5007V12.1207C21.0008 11.5836 20.7928 11.0673 20.42 10.6807Z" fill="#A0A0A0"/>
</g>
<defs>
<clipPath id="clip0_1_6407">
<rect width="24" height="24" fill="white" transform="translate(0 0.500488)"/>
</clipPath>
</defs>
</svg>
