<svg width="80" height="23" viewBox="0 0 80 23" fill="none" xmlns="http://www.w3.org/2000/svg">
<g clip-path="url(#clip0_1_3568)">
<g opacity="0.7">
<path d="M43.7717 7.97691L39.4498 12.2989C38.3774 13.3713 36.6385 13.3713 35.5662 12.2989C34.4938 11.2265 34.4938 9.48768 35.5662 8.41534L39.8883 4.09333C40.9604 3.02097 42.6996 3.02097 43.7717 4.09333C44.8442 5.16865 44.8442 6.90456 43.7717 7.97691Z" fill="#C96B4F"/>
</g>
<g opacity="0.7">
<path d="M78.727 6.26158L69.3306 15.658C68.2581 16.7304 66.5193 16.7304 65.4468 15.658C64.3747 14.5856 64.3747 12.8468 65.4468 11.7744L74.8432 2.378C75.9157 1.30564 77.6545 1.30564 78.727 2.378C79.7995 3.45331 79.7995 5.18923 78.727 6.26158Z" fill="#5D84C8"/>
</g>
<g opacity="0.7">
<path d="M69.12 6.7208L64.7357 11.105C63.6636 12.1773 61.9248 12.1773 60.8523 11.105C59.7798 10.0327 59.7798 8.2938 60.8523 7.22142L65.2366 2.83723C66.3087 1.76487 68.0479 1.76487 69.12 2.83723C70.1925 3.90958 70.1925 5.64846 69.12 6.7208Z" fill="#C072CC"/>
</g>
<g opacity="0.7">
<path d="M65.426 15.673L60.8551 11.1022C59.783 10.0298 59.783 8.29095 60.8551 7.21856C61.9276 6.14622 63.6664 6.14622 64.7389 7.21856L69.3098 11.7894C70.3819 12.8618 70.3819 14.6006 69.3098 15.673C68.2373 16.7453 66.4985 16.7453 65.426 15.673Z" fill="#3E3FA3"/>
</g>
<g opacity="0.7">
<path d="M69.8072 11.2887L65.2367 6.71788C64.1642 5.64553 64.1642 3.90665 65.2367 2.83429C66.3088 1.76194 68.0475 1.76194 69.12 2.83429L73.6909 7.40514C74.7634 8.47749 74.7634 10.2163 73.6909 11.2887C72.6184 12.3611 70.8797 12.3611 69.8072 11.2887Z" fill="#A3D64C"/>
</g>
<g opacity="0.7">
<path d="M54.3828 10.6695L49.3971 15.6551C48.3246 16.7275 46.5858 16.7275 45.5137 15.6551C44.4412 14.5827 44.4412 12.8439 45.5137 11.7715L50.499 6.78598C51.5715 5.71359 53.3103 5.71359 54.3828 6.78598C55.4549 7.86127 55.4549 9.59718 54.3828 10.6695Z" fill="#2029A0"/>
</g>
<path d="M50.345 14.7103L49.3971 15.6582C48.3246 16.7306 46.5858 16.7306 45.5137 15.6582C44.4412 14.5859 44.4412 12.847 45.5137 11.7746L46.4612 10.8267C47.5337 9.75438 49.2725 9.75438 50.345 10.8267C51.4175 11.8991 51.4175 13.6379 50.345 14.7103Z" fill="#C95F5C"/>
<g opacity="0.7">
<path d="M59.7889 1.40646C59.1847 0.802154 58.3907 0.5 57.5968 0.5C56.8028 0.5 56.012 0.802154 55.4078 1.40646C54.8004 2.01078 54.4983 2.80467 54.4983 3.59857C54.4983 4.39247 54.8004 5.18635 55.4078 5.79069C56.6162 6.99931 58.5773 6.99931 59.7889 5.79069C60.3931 5.18635 60.6952 4.39247 60.6952 3.59857C60.6952 2.80467 60.3931 2.01078 59.7889 1.40646ZM57.5968 4.27694C57.2204 4.27694 56.9183 3.97478 56.9183 3.59857C56.9183 3.22235 57.2204 2.9202 57.5968 2.9202C57.9731 2.9202 58.2752 3.22235 58.2752 3.59857C58.2752 3.97478 57.9731 4.27694 57.5968 4.27694Z" fill="#A30E90"/>
</g>
<g opacity="0.7">
<path d="M12.2084 8.38262L5.12252 15.4684C3.99094 16.6001 2.15727 16.6001 1.02271 15.4684C-0.108889 14.3368 -0.108889 12.5032 1.02271 11.3686L8.10855 4.28278C9.24013 3.15118 11.0738 3.15118 12.2084 4.28278C13.34 5.41734 13.34 7.251 12.2084 8.38262Z" fill="#5D9B64"/>
</g>
<g opacity="0.7">
<path d="M14.0834 14.3694L8.09664 8.38262C6.96502 7.251 6.96502 5.41734 8.09664 4.28278C9.22823 3.15118 11.0619 3.15118 12.1965 4.28278L18.1833 10.2696C19.3149 11.4012 19.3149 13.2349 18.1833 14.3694C17.0517 15.501 15.2151 15.501 14.0834 14.3694Z" fill="#71D1D8"/>
</g>
<g opacity="0.7">
<path d="M23.6666 11.9758L20.0763 8.38555C18.9447 7.25393 18.9447 5.42026 20.0763 4.28571C21.2079 3.15411 23.0415 3.15411 24.1761 4.28571L27.7664 7.87601C28.898 9.00764 28.898 10.8413 27.7664 11.9758C26.6318 13.1075 24.7982 13.1075 23.6666 11.9758Z" fill="#3068B2"/>
</g>
<g opacity="0.7">
<path d="M35.4595 12.1921L31.6529 8.38555C30.5213 7.25392 30.5213 5.42026 31.6529 4.28571C32.7845 3.15411 34.6182 3.15411 35.7527 4.28571L39.5591 8.09228C40.691 9.22387 40.691 11.0575 39.5591 12.1921C38.4277 13.3237 36.5911 13.3237 35.4595 12.1921Z" fill="#4553B0"/>
</g>
<g opacity="0.7">
<path d="M14.0835 10.2725L20.0703 4.28571C21.2019 3.15411 23.0355 3.15411 24.1701 4.28571C25.3017 5.41732 25.3017 7.25098 24.1701 8.38555L18.1833 14.3723C17.0517 15.504 15.218 15.504 14.0835 14.3723C12.9519 13.2378 12.9519 11.4041 14.0835 10.2725Z" fill="#3068B2"/>
</g>
<g opacity="0.7">
<path d="M39.666 12.0827L36.0906 15.6581C35.0182 16.7305 33.2793 16.7305 32.207 15.6581C31.1346 14.5858 31.1346 12.8469 32.207 11.7746L35.7825 8.19906C36.8548 7.12668 38.5937 7.12668 39.666 8.19906C40.7385 9.2714 40.7385 11.0103 39.666 12.0827Z" fill="#27988A"/>
</g>
<path d="M0.293915 22.0714L0.412405 21.7545C0.599029 21.8759 0.747148 21.9381 0.862675 21.9381C1.06708 21.9381 1.17075 21.8522 1.17075 21.6774C1.17075 21.553 1.07004 21.4464 0.871562 21.3575C0.717522 21.2864 0.613844 21.2331 0.56052 21.1976C0.507199 21.162 0.459801 21.1205 0.421292 21.0731C0.382782 21.0257 0.353158 20.9783 0.332421 20.925C0.314648 20.8717 0.302801 20.8184 0.302801 20.7561C0.302801 20.6021 0.359083 20.4807 0.47165 20.3948C0.584218 20.3088 0.729371 20.2644 0.913036 20.2644C1.0493 20.2644 1.22111 20.3088 1.43144 20.3948L1.33664 20.7028C1.20334 20.5962 1.073 20.5458 0.939695 20.5458C0.859713 20.5458 0.794542 20.5636 0.738261 20.6021C0.684939 20.6406 0.655317 20.688 0.655317 20.7443C0.655317 20.8658 0.723447 20.9546 0.859713 21.0168L1.09966 21.1264C1.24482 21.1946 1.35145 21.2686 1.41959 21.3545C1.48772 21.4405 1.52031 21.5471 1.52031 21.6745C1.52031 21.8433 1.46106 21.9736 1.34257 22.0684C1.22408 22.1632 1.06115 22.2107 0.850823 22.2107C0.655313 22.2166 0.468691 22.1692 0.293915 22.0714Z" fill="black"/>
<path d="M5.6261 21.9677C5.4928 22.1336 5.2884 22.2195 5.01288 22.2195C4.86478 22.2195 4.73741 22.1662 4.63075 22.0595C4.52115 21.9529 4.46783 21.8196 4.46783 21.6596C4.46783 21.47 4.55077 21.3071 4.71667 21.1768C4.88253 21.0464 5.09586 20.9783 5.35357 20.9783C5.42464 20.9783 5.50462 20.9931 5.59349 21.0227C5.59349 20.7176 5.45725 20.5665 5.18767 20.5665C4.98032 20.5665 4.82035 20.6228 4.70779 20.7354L4.56856 20.4569C4.63075 20.4066 4.71962 20.3621 4.83221 20.3236C4.94476 20.2881 5.05138 20.2673 5.15211 20.2673C5.42464 20.2673 5.62311 20.3296 5.74458 20.454C5.869 20.5784 5.92824 20.7739 5.92824 21.0464V21.7189C5.92824 21.8848 5.97861 21.9944 6.07635 22.0477V22.2136C5.94011 22.2136 5.83938 22.1958 5.77126 22.1543C5.70608 22.1188 5.65572 22.0566 5.6261 21.9677ZM5.59647 21.2597C5.48981 21.236 5.41875 21.2242 5.37431 21.2242C5.20542 21.2242 5.06918 21.2686 4.96252 21.3545C4.8559 21.4404 4.80259 21.5441 4.80259 21.6626C4.80259 21.8581 4.91809 21.9559 5.14917 21.9559C5.31802 21.9559 5.46612 21.8759 5.59647 21.7159V21.2597Z" fill="black"/>
<path d="M10.1643 19.8319C10.0961 19.8082 10.0339 19.7964 9.97466 19.7964C9.87393 19.7964 9.78805 19.8349 9.72288 19.9119C9.6577 19.9889 9.62509 20.0867 9.62509 20.2052C9.62509 20.2378 9.62808 20.2703 9.63401 20.3029H10.0161V20.5844H9.63401V22.181H9.29926V20.5844H9.02673V20.3029H9.29926C9.29926 20.063 9.3585 19.8763 9.47699 19.7371C9.59547 19.6009 9.7525 19.5327 9.94504 19.5327C10.0428 19.5327 10.1465 19.5505 10.2561 19.5861L10.1643 19.8319Z" fill="black"/>
<path d="M14.753 21.2745H13.3992C13.3992 21.4938 13.4585 21.6626 13.5799 21.7811C13.6866 21.8848 13.8229 21.9351 13.9917 21.9351C14.1813 21.9351 14.3412 21.8788 14.4686 21.7692L14.6079 22.0092C14.5575 22.0595 14.4775 22.104 14.3709 22.1425C14.2376 22.1928 14.0895 22.2165 13.9265 22.2165C13.6895 22.2165 13.4911 22.1365 13.3252 21.9766C13.1415 21.7988 13.0497 21.5619 13.0497 21.2657C13.0497 20.9546 13.1445 20.7087 13.3311 20.5192C13.5 20.3533 13.6984 20.2673 13.9295 20.2673C14.1961 20.2673 14.4064 20.3414 14.5605 20.4925C14.7086 20.6376 14.7826 20.8302 14.7826 21.0701C14.7767 21.1471 14.7678 21.2123 14.753 21.2745ZM13.9443 20.5488C13.7962 20.5488 13.6718 20.5962 13.571 20.6939C13.4762 20.7857 13.42 20.8983 13.4081 21.0346H14.4479C14.4479 20.9013 14.4064 20.7887 14.3205 20.6969C14.2287 20.5991 14.1013 20.5488 13.9443 20.5488Z" fill="black"/>
<path d="M21.7617 22.184V20.5873H21.504V20.3059H22.0964V22.184H21.7617ZM21.9424 19.595C21.9987 19.595 22.0491 19.6157 22.0876 19.6542C22.129 19.6957 22.1468 19.7431 22.1468 19.7994C22.1468 19.8557 22.1261 19.906 22.0876 19.9475C22.0461 19.989 21.9987 20.0067 21.9424 20.0067C21.8861 20.0067 21.8387 19.986 21.7972 19.9475C21.7558 19.906 21.738 19.8586 21.738 19.7994C21.738 19.7401 21.7587 19.6927 21.7972 19.6542C21.8358 19.6128 21.8861 19.595 21.9424 19.595Z" fill="black"/>
<path d="M26.5073 22.1812V22.042C26.3918 22.1575 26.2229 22.2168 26.0007 22.2168C25.7667 22.2168 25.5742 22.1338 25.429 21.965C25.2839 21.7961 25.2098 21.571 25.2098 21.2925C25.2098 21.0111 25.2928 20.7712 25.4616 20.5697C25.6305 20.3683 25.8319 20.2705 26.063 20.2705C26.2585 20.2705 26.4036 20.315 26.5043 20.4068V19.5359H26.8421V22.1812H26.5073ZM26.5073 20.7386C26.4244 20.6112 26.3088 20.549 26.1607 20.549C25.983 20.549 25.8378 20.6171 25.7253 20.7475C25.6157 20.8808 25.5594 21.0496 25.5594 21.257C25.5594 21.7102 25.7638 21.9353 26.1755 21.9353C26.2288 21.9353 26.2911 21.9176 26.3651 21.885C26.4392 21.8524 26.4836 21.8169 26.5043 21.7784V20.7386H26.5073Z" fill="black"/>
<path d="M31.5937 21.2745H30.2399C30.2399 21.4938 30.2992 21.6626 30.4206 21.7811C30.5273 21.8848 30.6635 21.9351 30.8323 21.9351C31.0219 21.9351 31.1819 21.8788 31.3093 21.7692L31.4485 22.0092C31.3982 22.0595 31.3182 22.104 31.2115 22.1425C31.0782 22.1928 30.9301 22.2165 30.7672 22.2165C30.5302 22.2165 30.3317 22.1365 30.1659 21.9766C29.9822 21.7988 29.8904 21.5619 29.8904 21.2657C29.8904 20.9546 29.9851 20.7087 30.1718 20.5192C30.3406 20.3533 30.5391 20.2673 30.7702 20.2673C31.0367 20.2673 31.2471 20.3414 31.4011 20.4925C31.5492 20.6376 31.6233 20.8302 31.6233 21.0701C31.6203 21.1471 31.6115 21.2123 31.5937 21.2745ZM30.785 20.5488C30.6369 20.5488 30.5124 20.5962 30.4117 20.6939C30.3169 20.7857 30.2606 20.8983 30.2488 21.0346H31.2886C31.2886 20.9013 31.2471 20.7887 31.1612 20.6969C31.0723 20.5991 30.9449 20.5488 30.785 20.5488Z" fill="black"/>
<path d="M35.8209 22.184V21.0909C35.8209 20.8924 35.7912 20.7502 35.732 20.6702C35.6728 20.5902 35.572 20.5488 35.4298 20.5488C35.3528 20.5488 35.2758 20.5725 35.1899 20.6169C35.1069 20.6613 35.0417 20.7176 34.9973 20.7857V22.181H34.6626V20.3029H34.8907L34.9973 20.5458C35.1069 20.3621 35.2876 20.2673 35.5365 20.2673C35.9482 20.2673 36.1526 20.5162 36.1526 21.0168V22.181H35.8209V22.184Z" fill="black"/>
<path d="M39.4406 20.5667H39.2244V20.3031H39.4406V19.9091L39.7752 19.7817V20.3031H40.2906V20.5667H39.7752V21.4999C39.7752 21.6569 39.8019 21.7695 39.8553 21.8376C39.9088 21.9028 39.9944 21.9383 40.113 21.9383C40.1991 21.9383 40.2879 21.9176 40.3767 21.8732L40.4269 22.1664C40.2906 22.202 40.1366 22.2197 39.974 22.2197C39.8259 22.2197 39.7013 22.1634 39.5976 22.0538C39.4939 21.9442 39.4436 21.805 39.4436 21.6361V20.5667H39.4406Z" fill="black"/>
<path d="M43.6028 22.184V20.5873H43.3451V20.3059H43.9375V22.184H43.6028ZM43.7867 19.595C43.8428 19.595 43.8931 19.6157 43.9316 19.6542C43.9733 19.6957 43.9909 19.7431 43.9909 19.7994C43.9909 19.8557 43.9701 19.906 43.9316 19.9475C43.8904 19.989 43.8428 20.0067 43.7867 20.0067C43.7301 20.0067 43.6829 19.986 43.6413 19.9475C43.6001 19.906 43.5792 19.8586 43.5792 19.7994C43.5792 19.7401 43.6001 19.6927 43.6386 19.6542C43.6798 19.6128 43.7273 19.595 43.7867 19.595Z" fill="black"/>
<path d="M48.1737 19.8319C48.1053 19.8082 48.0433 19.7964 47.9839 19.7964C47.8834 19.7964 47.7973 19.8349 47.7321 19.9119C47.6669 19.9889 47.6343 20.0867 47.6343 20.2052C47.6343 20.2378 47.6374 20.2703 47.6433 20.3029H48.0256V20.5844H47.6433V22.181H47.3086V20.5844H47.036V20.3029H47.3086C47.3086 20.063 47.3679 19.8763 47.4862 19.7371C47.6048 19.6009 47.762 19.5327 47.9545 19.5327C48.0519 19.5327 48.1556 19.5505 48.2652 19.5861L48.1737 19.8319Z" fill="black"/>
<path d="M51.3433 22.184V20.5873H51.0855V20.3059H51.678V22.184H51.3433ZM51.524 19.595C51.5805 19.595 51.6308 19.6157 51.6693 19.6542C51.7106 19.6957 51.7286 19.7431 51.7286 19.7994C51.7286 19.8557 51.7078 19.906 51.6693 19.9475C51.6277 19.989 51.5805 20.0067 51.524 20.0067C51.4678 20.0067 51.4203 19.986 51.379 19.9475C51.3374 19.906 51.3165 19.8586 51.3165 19.7994C51.3165 19.7401 51.3374 19.6927 51.3759 19.6542C51.4203 19.6128 51.4678 19.595 51.524 19.595Z" fill="black"/>
<path d="M56.3172 20.4569L56.151 20.691C56.1157 20.6584 56.0564 20.6258 55.9703 20.5932C55.8847 20.5606 55.7986 20.5488 55.7158 20.5488C55.535 20.5488 55.3897 20.611 55.2832 20.7384C55.1764 20.8657 55.1233 21.0405 55.1233 21.2597C55.1233 21.4789 55.1764 21.6478 55.286 21.7633C55.3956 21.8788 55.5468 21.9351 55.7393 21.9351C55.8874 21.9351 56.0387 21.8759 56.1927 21.7603L56.3231 22.0418C56.1451 22.1573 55.9232 22.2165 55.6596 22.2165C55.4046 22.2165 55.1913 22.1307 55.0255 21.9588C54.8597 21.787 54.7737 21.553 54.7737 21.2597C54.7737 20.9605 54.8597 20.7206 55.0345 20.5399C55.209 20.3592 55.4463 20.2673 55.7484 20.2673C55.8462 20.2673 55.9495 20.2881 56.0654 20.3296C56.1809 20.371 56.2638 20.4125 56.3172 20.4569Z" fill="black"/>
<path d="M60.4348 21.9677C60.3012 22.1336 60.0969 22.2195 59.8215 22.2195C59.6734 22.2195 59.5461 22.1662 59.4392 22.0595C59.3296 21.9529 59.2762 21.8196 59.2762 21.6596C59.2762 21.47 59.3595 21.3071 59.5253 21.1768C59.6911 21.0464 59.9044 20.9783 60.1621 20.9783C60.2332 20.9783 60.3102 20.9931 60.4021 21.0227C60.4021 20.7176 60.2658 20.5665 59.9963 20.5665C59.7889 20.5665 59.629 20.6228 59.5162 20.7354L59.3772 20.4569C59.4393 20.4066 59.528 20.3621 59.6376 20.3236C59.7504 20.2881 59.8569 20.2673 59.9578 20.2673C60.2301 20.2673 60.4289 20.3296 60.5502 20.454C60.6744 20.5784 60.7369 20.7739 60.7369 21.0464V21.7189C60.7369 21.8848 60.7871 21.9944 60.885 22.0477V22.2136C60.7486 22.2136 60.6481 22.1958 60.5797 22.1543C60.5117 22.1188 60.4642 22.0566 60.4348 21.9677ZM60.4021 21.2597C60.2953 21.236 60.2242 21.2242 60.1798 21.2242C60.0109 21.2242 59.8749 21.2686 59.7681 21.3545C59.6616 21.4404 59.6082 21.5441 59.6082 21.6626C59.6082 21.8581 59.7237 21.9559 59.9547 21.9559C60.1236 21.9559 60.2717 21.8759 60.4021 21.7159V21.2597Z" fill="black"/>
<path d="M64.0722 20.5667H63.8562V20.3031H64.0722V19.9091L64.407 19.7817V20.3031H64.9224V20.5667H64.407V21.4999C64.407 21.6569 64.4337 21.7695 64.4871 21.8376C64.5401 21.9028 64.6262 21.9383 64.7448 21.9383C64.8305 21.9383 64.9196 21.9176 65.0084 21.8732L65.0587 22.1664C64.9196 22.202 64.7684 22.2197 64.6053 22.2197C64.4572 22.2197 64.3331 22.1634 64.2294 22.0538C64.1284 21.9442 64.0754 21.805 64.0754 21.6361V20.5667H64.0722Z" fill="black"/>
<path d="M68.2342 22.184V20.5873H67.9764V20.3059H68.5689V22.184H68.2342ZM68.4149 19.595C68.4714 19.595 68.5217 19.6157 68.5602 19.6542C68.6015 19.6957 68.6196 19.7431 68.6196 19.7994C68.6196 19.8557 68.5987 19.906 68.5602 19.9475C68.5186 19.989 68.4714 20.0067 68.4149 20.0067C68.3587 20.0067 68.3112 19.986 68.2699 19.9475C68.2283 19.906 68.2078 19.8586 68.2078 19.7994C68.2078 19.7401 68.2283 19.6927 68.2668 19.6542C68.3112 19.6128 68.3587 19.595 68.4149 19.595Z" fill="black"/>
<path d="M71.6677 21.2392C71.6677 20.9489 71.7447 20.7149 71.9019 20.5371C72.0586 20.3594 72.2633 20.2705 72.5179 20.2705C72.7874 20.2705 72.9948 20.3564 73.1429 20.5282C73.291 20.7001 73.3653 20.937 73.3653 21.2422C73.3653 21.5443 73.2879 21.7843 73.137 21.959C72.9858 22.1338 72.7787 22.2197 72.5147 22.2197C72.2484 22.2197 72.0378 22.1308 71.8897 21.9561C71.7416 21.7753 71.6677 21.5384 71.6677 21.2392ZM72.0174 21.2392C72.0174 21.7102 72.1832 21.9472 72.5179 21.9472C72.6719 21.9472 72.7964 21.885 72.882 21.7576C72.9712 21.6302 73.0156 21.4584 73.0156 21.2392C73.0156 20.7741 72.8498 20.5401 72.5179 20.5401C72.3666 20.5401 72.2452 20.6023 72.1537 20.7267C72.0645 20.8511 72.0174 21.0229 72.0174 21.2392Z" fill="black"/>
<path d="M77.5684 22.184V21.0909C77.5684 20.8924 77.539 20.7502 77.4796 20.6702C77.4203 20.5902 77.3197 20.5488 77.1775 20.5488C77.1005 20.5488 77.0204 20.5725 76.9375 20.6169C76.8546 20.6613 76.7894 20.7176 76.745 20.7857V22.181H76.413V20.3029H76.6413L76.745 20.5458C76.8546 20.3621 77.0353 20.2673 77.284 20.2673C77.6957 20.2673 77.9004 20.5162 77.9004 21.0168V22.181H77.5684V22.184Z" fill="black"/>
</g>
<defs>
<clipPath id="clip0_1_3568">
<rect width="79.3571" height="22" fill="white" transform="translate(0.174011 0.5)"/>
</clipPath>
</defs>
</svg>
