<svg width="41" height="41" viewBox="0 0 41 41" fill="none" xmlns="http://www.w3.org/2000/svg">
<path d="M30.0837 18.4833V25.15C30.0837 25.5833 30.067 26 30.017 26.4C29.6337 30.9 26.9837 33.1333 22.1003 33.1333H21.4337C21.017 33.1333 20.617 33.3333 20.367 33.6667L18.367 36.3333C17.4837 37.5167 16.0503 37.5167 15.167 36.3333L13.167 33.6667C12.9503 33.3833 12.467 33.1333 12.1003 33.1333H11.4337C6.117 33.1333 3.45032 31.8167 3.45032 25.15V18.4833C3.45032 13.6 5.70033 10.95 10.1837 10.5667C10.5837 10.5167 11.0003 10.5 11.4337 10.5H22.1003C27.417 10.5 30.0837 13.1667 30.0837 18.4833Z" stroke="#007BFF" stroke-width="2" stroke-miterlimit="10" stroke-linecap="round" stroke-linejoin="round"/>
<path d="M36.7503 11.8167V18.4834C36.7503 23.3834 34.5002 26.0167 30.0169 26.4001C30.0669 26.0001 30.0836 25.5834 30.0836 25.1501V18.4834C30.0836 13.1667 27.4169 10.5 22.1002 10.5H11.4336C11.0003 10.5 10.5836 10.5167 10.1836 10.5667C10.5669 6.08339 13.2169 3.83337 18.1003 3.83337H28.7669C34.0836 3.83337 36.7503 6.50005 36.7503 11.8167Z" stroke="#007BFF" stroke-width="2" stroke-miterlimit="10" stroke-linecap="round" stroke-linejoin="round"/>
<path d="M22.6094 22.5833H22.6244" stroke="#007BFF" stroke-width="2" stroke-linecap="round" stroke-linejoin="round"/>
<path d="M16.7761 22.5834H16.7911" stroke="#007BFF" stroke-width="2" stroke-linecap="round" stroke-linejoin="round"/>
<path d="M10.9428 22.5833H10.9578" stroke="#007BFF" stroke-width="2" stroke-linecap="round" stroke-linejoin="round"/>
</svg>
