<svg width="21" height="25" viewBox="0 0 21 25" fill="none" xmlns="http://www.w3.org/2000/svg">
<path d="M10.1536 25C11.5286 25 12.6536 23.875 12.6536 22.5H7.65363C7.65363 23.163 7.91702 23.7989 8.38586 24.2678C8.8547 24.7366 9.49058 25 10.1536 25ZM17.6536 17.5V11.25C17.6536 7.4125 15.6036 4.2 12.0286 3.35V2.5C12.0286 1.4625 11.1911 0.625 10.1536 0.625C9.11613 0.625 8.27863 1.4625 8.27863 2.5V3.35C4.69113 4.2 2.65363 7.4 2.65363 11.25V17.5L0.153625 20V21.25H20.1536V20L17.6536 17.5Z" fill="#007BFF"/>
</svg>
