<svg width="80" height="27" viewBox="0 0 80 27" fill="none" xmlns="http://www.w3.org/2000/svg">
<g clip-path="url(#clip0_1_3563)">
<path fill-rule="evenodd" clip-rule="evenodd" d="M79.8514 13.5L79.8508 14.8L79.8502 15.3384L79.8483 15.7515L79.8465 16.0997L79.8434 16.4063L79.8403 16.6834L79.836 16.938L79.831 17.175L79.8261 17.3973L79.8199 17.6075L79.8131 17.8073L79.8057 17.9979L79.7977 18.1806L79.7897 18.3562L79.7804 18.5254L79.7705 18.6889L79.76 18.8472L79.7489 19.0006L79.7372 19.1495L79.7248 19.2944L79.7118 19.4355L79.6982 19.573L79.684 19.7071L79.6686 19.8381L79.6532 19.9661L79.6371 20.0914L79.6204 20.214L79.6025 20.334L79.5846 20.4517L79.5661 20.5671L79.5463 20.6802L79.5265 20.7912L79.5055 20.9002L79.4839 21.0073L79.4623 21.1125L79.4394 21.2158L79.416 21.3175L79.3919 21.4174L79.3672 21.5157L79.3419 21.6125L79.3159 21.7076L79.2894 21.8013L79.2622 21.8935L79.2344 21.9843L79.2054 22.0738L79.1763 22.1618L79.1461 22.2486L79.1158 22.3341L79.0843 22.4183L79.0522 22.5013L79.0194 22.583L78.9861 22.6636L78.9521 22.7431L78.9175 22.8215L78.8817 22.8986L78.8459 22.9747L78.8088 23.0497L78.7711 23.1237L78.7329 23.1966L78.6939 23.2685L78.6544 23.3394L78.6143 23.4093L78.5729 23.4783L78.5315 23.5462L78.4889 23.6132L78.4456 23.6793L78.4018 23.7443L78.3567 23.8085L78.3116 23.8719L78.2653 23.9342L78.2184 23.9957L78.1708 24.0563L78.122 24.1161L78.0726 24.1749L78.0232 24.233L77.9719 24.2902L77.9206 24.3465L77.8681 24.4021L77.815 24.4567L77.7613 24.5106L77.7063 24.5636L77.6507 24.6159L77.5945 24.6674L77.5371 24.718L77.479 24.7679L77.4203 24.817L77.3604 24.8654L77.2999 24.9129L77.2387 24.9597L77.1764 25.0058L77.1127 25.051L77.0485 25.0955L76.9837 25.1393L76.9176 25.1824L76.8509 25.2246L76.7829 25.2662L76.7137 25.307L76.6439 25.3471L76.5729 25.3865L76.5013 25.4252L76.4284 25.4631L76.3543 25.5002L76.2795 25.5368L76.2036 25.5725L76.1264 25.6076L76.0479 25.642L75.9682 25.6757L75.8879 25.7086L75.8058 25.7409L75.723 25.7725L75.6384 25.8034L75.5532 25.8336L75.4661 25.8631L75.3778 25.8919L75.2882 25.92L75.1974 25.9475L75.1048 25.9743L75.0109 26.0003L74.9157 26.0258L74.8182 26.0505L74.72 26.0746L74.6193 26.0979L74.5174 26.1207L74.413 26.1427L74.3074 26.1641L74.1993 26.1847L74.0893 26.2048L73.9775 26.2242L73.8633 26.2429L73.7465 26.2609L73.6279 26.2783L73.5063 26.2951L73.3815 26.3111L73.2543 26.3265L73.1245 26.3412L72.9911 26.3553L72.854 26.3688L72.7132 26.3815L72.5687 26.3936L72.4198 26.4051L72.2666 26.4159L72.1079 26.426L71.9436 26.4355L71.7731 26.4444L71.5965 26.4525L71.4112 26.4601L71.2179 26.467L71.0146 26.4732L70.7991 26.4788L70.5699 26.4837L70.3235 26.488L70.056 26.4916L69.7608 26.4946L69.4254 26.4969L69.0301 26.4986L68.5206 26.4996L61.3524 26.5L59.7825 26.4997L59.2434 26.4988L58.8349 26.4972L58.4923 26.495L58.1913 26.4921L57.9198 26.4886L57.6705 26.4845L57.4389 26.4796L57.2216 26.4741L57.0162 26.468L56.8212 26.4612L56.6351 26.4538L56.4568 26.4457L56.2855 26.4369L56.1205 26.4276L55.961 26.4175L55.8068 26.4069L55.6572 26.3955L55.5119 26.3835L55.3707 26.3708L55.2332 26.3575L55.0992 26.3435L54.9685 26.3289L54.8408 26.3136L54.716 26.2977L54.594 26.281L54.4746 26.2637L54.3576 26.2458L54.243 26.2272L54.1306 26.208L54.0204 26.188L53.9122 26.1674L53.8061 26.1461L53.7018 26.1242L53.5993 26.1016L53.4986 26.0783L53.3996 26.0544L53.3024 26.0297L53.2066 26.0044L53.1124 25.9784L53.0197 25.9518L52.9285 25.9244L52.8387 25.8964L52.7502 25.8677L52.6631 25.8383L52.5774 25.8082L52.4929 25.7775L52.4097 25.746L52.3276 25.7138L52.2468 25.681L52.1672 25.6474L52.0887 25.6131L52.0113 25.5782L51.9351 25.5425L51.8599 25.5061L51.7858 25.469L51.7127 25.4312L51.6407 25.3927L51.5696 25.3534L51.4997 25.3134L51.4306 25.2727L51.3626 25.2313L51.2955 25.1891L51.2293 25.1462L51.1641 25.1026L51.0997 25.0582L51.0364 25.013L50.9739 24.9671L50.9122 24.9204L50.8514 24.873L50.7916 24.8248L50.7325 24.7758L50.6744 24.726L50.617 24.6755L50.5605 24.6242L50.5049 24.572L50.45 24.5191L50.3959 24.4654L50.3427 24.4108L50.2902 24.3554L50.2385 24.2992L50.1876 24.2422L50.1375 24.1842L50.0881 24.1255L50.0396 24.0659L49.9918 24.0054L49.9447 23.9441L49.8984 23.8818L49.8528 23.8187L49.808 23.7547L49.7639 23.6897L49.7205 23.6237L49.6779 23.5569L49.636 23.4891L49.5948 23.4204L49.5543 23.3506L49.5145 23.2799L49.4755 23.2081L49.4371 23.1354L49.3995 23.0616L49.3625 22.9867L49.3263 22.9108L49.2908 22.8338L49.2559 22.7557L49.2217 22.6764L49.1882 22.596L49.1554 22.5144L49.1233 22.4316L49.0919 22.3475L49.0611 22.2623L49.031 22.1757L49.0016 22.0879L48.9728 21.9987L48.9447 21.9081L48.9173 21.8161L48.8906 21.7226L48.8644 21.6277L48.8391 21.5312L48.8143 21.4332L48.7901 21.3335L48.7667 21.2321L48.7439 21.129L48.7218 21.0241L48.7003 20.9174L48.6795 20.8087L48.6593 20.698L48.6397 20.5852L48.6208 20.4702L48.6026 20.3529L48.585 20.2333L48.568 20.1111L48.5517 19.9863L48.536 19.8587L48.521 19.7282L48.5066 19.5945L48.4929 19.4576L48.4797 19.3171L48.4672 19.1729L48.4554 19.0245L48.4443 18.8719L48.4337 18.7144L48.4238 18.5519L48.4145 18.3836L48.4058 18.2091L48.3978 18.0275L48.3905 17.8382L48.3837 17.64L48.3776 17.4316L48.3721 17.2113L48.3672 16.9769L48.363 16.7253L48.3595 16.4522L48.3565 16.1509L48.3542 15.8105L48.3525 15.4102L48.3515 14.8996L48.3511 14.0188L48.3513 12.308L48.3521 11.7363L48.3536 11.309L48.3557 10.9526L48.3585 10.6403L48.3618 10.3591L48.3658 10.1012L48.3705 9.86169L48.3758 9.63718L48.3817 9.42521L48.3882 9.22391L48.3954 9.03183L48.4032 8.84795L48.4116 8.67128L48.4207 8.50111L48.4304 8.33672L48.4408 8.17773L48.4518 8.02355L48.4634 7.87392L48.4757 7.72839L48.4886 7.58675L48.5021 7.44869L48.5163 7.31401L48.5312 7.18252L48.5466 7.05402L48.5627 6.92835L48.5795 6.80535L48.5969 6.6849L48.6149 6.56688L48.6336 6.45118L48.653 6.33769L48.6729 6.22632L48.6935 6.11699L48.7149 6.00963L48.7368 5.90415L48.7594 5.80048L48.7826 5.69858L48.8065 5.59837L48.8311 5.49981L48.8563 5.40285L48.8822 5.30743L48.9087 5.21351L48.9359 5.12106L48.9638 5.03003L48.9924 4.94038L49.0215 4.85209L49.0514 4.76513L49.082 4.67945L49.1132 4.59503L49.1451 4.51185L49.1777 4.42987L49.2109 4.34908L49.2449 4.26945L49.2796 4.19095L49.3149 4.11358L49.3509 4.03731L49.3877 3.96211L49.4251 3.88797L49.4632 3.81488L49.5021 3.74282L49.5416 3.67177L49.5818 3.60172L49.6227 3.53265L49.6644 3.46455L49.7069 3.39741L49.75 3.33121L49.7938 3.26594L49.8384 3.20161L49.8838 3.13817L49.9298 3.07564L49.9767 3.01401L50.0243 2.95326L50.0726 2.89337L50.1217 2.83435L50.1716 2.77618L50.2222 2.71887L50.2736 2.66239L50.3259 2.60674L50.3789 2.55192L50.4327 2.49792L50.4873 2.44472L50.5427 2.39233L50.5989 2.34075L50.656 2.28995L50.714 2.23994L50.7727 2.19071L50.8323 2.14226L50.8928 2.09458L50.9541 2.04767L51.0164 2.00151L51.0795 1.95612L51.1435 1.91147L51.2084 1.86759L51.2743 1.82443L51.3411 1.78203L51.4089 1.74036L51.4776 1.69942L51.5473 1.65921L51.618 1.61972L51.6897 1.58096L51.7624 1.54293L51.8362 1.5056L51.911 1.46899L51.9869 1.43309L52.0639 1.3979L52.142 1.36341L52.2213 1.32963L52.3018 1.29655L52.3834 1.26416L52.4662 1.23247L52.5503 1.20148L52.6357 1.17118L52.7223 1.14156L52.8103 1.11263L52.8997 1.08439L52.9905 1.05683L53.0827 1.02995L53.1764 1.00376L53.2717 0.978236L53.3685 0.953394L53.467 0.929227L53.5671 0.905733L53.6689 0.882912L53.7726 0.860762L53.8782 0.839282L53.9857 0.818469L54.0953 0.798325L54.207 0.778845L54.3209 0.760031L54.437 0.741881L54.5557 0.724394L54.6769 0.707568L54.8007 0.691404L54.9275 0.675898L55.0572 0.661053L55.1902 0.646866L55.3265 0.633336L55.4665 0.620463L55.6104 0.608246L55.7586 0.596686L55.9113 0.58578L56.0691 0.575528L56.2323 0.56593L56.4016 0.556986L56.5775 0.548694L56.761 0.541055L56.9531 0.534068L57.1549 0.527732L57.3682 0.522049L57.595 0.517016L57.8383 0.512634L58.1021 0.508902L58.3926 0.505822L58.7201 0.503391L59.1037 0.501611L59.5882 0.50048L60.3775 0.5L68.3099 0.50017L68.885 0.500989L69.3081 0.502459L69.6589 0.504579L69.9653 0.507349L70.2413 0.51077L70.4933 0.514841L70.7281 0.519563L70.9473 0.524935L71.1542 0.530959L71.3506 0.537635L71.5384 0.544963L71.7175 0.552942L71.8899 0.561575L72.056 0.57086L72.2166 0.5808L72.3716 0.591393L72.5217 0.602641L72.6675 0.614544L72.8095 0.627104L72.9479 0.640319L73.0819 0.654192L73.2135 0.668723L73.3413 0.683913L73.4667 0.699762L73.589 0.716272L73.7089 0.733443L73.8262 0.751276L73.9411 0.769773L74.0541 0.788935L74.1647 0.808761L74.2734 0.829254L74.3796 0.850416L74.484 0.872245L74.5872 0.894746L74.6878 0.917917L74.7873 0.941763L74.8849 0.966282L74.9806 0.991477L75.0751 1.01735L75.1684 1.0439L75.2598 1.07114L75.3493 1.09905L75.4383 1.12765L75.5254 1.15694L75.6112 1.18691L75.6965 1.21758L75.7798 1.24894L75.862 1.28099L75.9429 1.31373L76.0226 1.34718L76.1016 1.38134L76.1789 1.41619L76.2554 1.45175L76.3308 1.48802L76.4049 1.525L76.4784 1.5627L76.5507 1.60111L76.6217 1.64025L76.6915 1.68011L76.7607 1.72071L76.8292 1.76203L76.8966 1.80408L76.9627 1.84688L77.0281 1.89041L77.0924 1.9347L77.156 1.97973L77.219 2.02552L77.2807 2.07207L77.3413 2.11938L77.4012 2.16746L77.4605 2.21632L77.5192 2.26596L77.5766 2.31637L77.6328 2.36759L77.689 2.41959L77.744 2.4724L77.7977 2.52602L77.8515 2.58044L77.904 2.6357L77.9558 2.69177L78.0065 2.74869L78.0571 2.80645L78.1066 2.86506L78.1553 2.92453L78.2029 2.98487L78.2505 3.04609L78.2968 3.10819L78.3425 3.17119L78.3876 3.23509L78.4314 3.29991L78.4753 3.36566L78.5179 3.43234L78.5599 3.49999L78.6013 3.56859L78.6421 3.63817L78.6816 3.70874L78.7211 3.78032L78.7594 3.85292L78.7971 3.92655L78.8341 4.00124L78.8706 4.077L78.9058 4.15385L78.941 4.23181L78.9756 4.31089L79.0089 4.39112L79.0417 4.47253L79.0744 4.55514L79.1059 4.63896L79.1368 4.72403L79.1665 4.81038L79.1961 4.89804L79.2251 4.98703L79.2535 5.07739L79.2807 5.16916L79.3079 5.26237L79.3338 5.35706L79.3592 5.45329L79.3845 5.55108L79.4086 5.65049L79.432 5.75158L79.4549 5.85439L79.4771 5.959L79.4987 6.06546L79.5197 6.17384L79.5401 6.28422L79.5599 6.39668L79.5784 6.51132L79.597 6.62822L79.6149 6.74749L79.6315 6.86925L79.6482 6.99363L79.6643 7.12077L79.6791 7.25083L79.6939 7.38396L79.7075 7.52032L79.7205 7.66027L79.7335 7.80385L79.7452 7.95153L79.7563 8.1035L79.7674 8.26015L79.7773 8.42187L79.7866 8.58918L79.7952 8.76273L79.8032 8.94304L79.8107 9.13109L79.8175 9.32778L79.8242 9.53442L79.8298 9.75268L79.8348 9.98467L79.8391 10.2333L79.8428 10.5027L79.8453 10.7989L79.8477 11.132L79.8496 11.5206L79.8508 12.0073L79.8514 12.7663V13.5ZM61.3218 20.65H66.263C70.9442 20.65 73.6749 17.5857 73.6749 13.4591C73.6749 9.2917 70.9813 6.35 66.3372 6.35H61.3218V20.65ZM58.8512 20.65H55.1453V6.35H58.8512V20.65ZM13.7343 13.5C13.7343 17.444 11.0184 20.975 6.93492 20.975C2.85141 20.975 0.174011 17.4853 0.174011 13.5C0.174011 9.55599 2.88993 6.025 6.97346 6.025C11.057 6.025 13.7343 9.51472 13.7343 13.5ZM1.21415 13.5C1.21415 17.0723 3.64114 20.0045 6.97346 20.0045C10.3057 20.0045 12.6942 17.1136 12.6942 13.5C12.6942 9.92766 10.2672 6.99551 6.93492 6.99551C3.60262 6.99551 1.21415 9.88639 1.21415 13.5ZM18.4237 20.65H17.4683V6.35H18.4046L27.6333 18.791V6.35H28.5886V20.65H27.8434L18.4237 7.94341V20.65ZM42.1745 20.65H32.5637V6.35H42.079V7.33059H33.5572V12.9484H41.2192V13.929H33.5572V19.6694H42.1745V20.65ZM67.003 18.1439C67.3674 18.1329 67.7825 18.0828 68.2049 17.9703C68.2556 17.957 68.3068 17.9428 68.36 17.9274C68.6861 17.8322 69.0394 17.6921 69.4026 17.4575C69.4915 17.4018 69.578 17.3419 69.6632 17.2777L69.6601 17.2763C69.9189 17.0783 70.1808 16.8278 70.4408 16.5076C70.5471 16.3762 70.7305 16.0986 70.8343 15.8832C70.594 15.615 70.2284 15.3946 69.8856 15.2007L69.8491 15.1799C69.6904 15.0898 69.4026 14.9267 69.1345 14.8162C69.1061 14.8045 69.0758 14.793 69.0456 14.7811C68.8139 14.6913 68.5428 14.5861 68.5156 14.2964C68.4946 14.0729 68.6021 13.9333 68.7306 13.7669C68.7614 13.7269 68.7936 13.6854 68.8251 13.6408C69.1994 13.1148 69.5514 12.3973 69.4878 11.4258C69.4254 10.4723 68.8454 9.73182 67.8751 9.61755C67.7627 9.60435 67.6534 9.59863 67.5471 9.60026C67.4409 9.59863 67.331 9.60435 67.2185 9.61755C66.2482 9.73182 65.6682 10.4723 65.6058 11.4258C65.5422 12.3973 65.8943 13.1148 66.2686 13.6408C66.3007 13.6854 66.3322 13.7269 66.3631 13.7669C66.4916 13.9333 66.599 14.0729 66.578 14.2964C66.5509 14.5861 66.2797 14.6913 66.0481 14.7811C66.0178 14.793 65.9882 14.8045 65.9598 14.8162C65.6911 14.9267 65.4039 15.0898 65.2445 15.1799L65.2081 15.2007C64.6991 15.4884 64.1408 15.8346 64.0154 16.3081C63.8616 16.8874 63.7788 17.6146 63.7943 18.1439H64.6633C64.9054 18.1439 65.1543 18.1465 65.4082 18.1492C65.9295 18.1546 66.4699 18.1601 67.003 18.1439Z" fill="#007BFF"/>
</g>
<defs>
<clipPath id="clip0_1_3563">
<rect width="79.6774" height="26" fill="white" transform="translate(0.174011 0.5)"/>
</clipPath>
</defs>
</svg>
