<svg width="24" height="24" viewBox="0 0 24 24" fill="none" xmlns="http://www.w3.org/2000/svg">
<rect width="24" height="24" rx="5" fill="white"/>
<g clip-path="url(#clip0_1_6204)">
<path d="M3.92721 9H19.2283C19.4036 9 19.5565 9.0701 19.6426 9.2103L21.1688 11.6861C21.2867 11.8805 21.2644 12.1163 21.0987 12.3107L18.9479 14.7865C18.83 14.9203 18.6771 15 18.505 15H3.24531C2.94261 15 2.72593 14.7642 2.76098 14.4679L3.32816 9.53213C3.36321 9.22942 3.6245 9 3.92402 9" fill="#0CBBBC"/>
<path d="M13.0563 13.2443L13.2921 11.3612C13.4514 11.2528 13.633 11.1668 13.786 11.1668C13.9867 11.1668 14.0855 11.3166 14.0536 11.5746L13.8465 13.2475H14.573L14.7992 11.4217L14.8056 11.3707C14.9649 11.2624 15.1497 11.17 15.3059 11.17C15.5066 11.17 15.6054 11.3197 15.5735 11.5778L15.3664 13.2507H16.0929L16.3192 11.4249C16.3797 10.9151 16.1184 10.606 15.65 10.606C15.325 10.606 14.9809 10.7908 14.7514 10.9597C14.6527 10.7334 14.4392 10.606 14.1333 10.606C13.8274 10.606 13.5374 10.7557 13.3048 10.9087L13.3367 10.6761H12.658L12.333 13.2475H13.0595L13.0563 13.2443ZM17.3452 11.7212C17.4185 11.3803 17.6638 11.1827 17.9665 11.1827C18.2692 11.1827 18.4349 11.3516 18.4349 11.6256C18.4349 11.6575 18.4349 11.6925 18.4317 11.7244H17.3452V11.7212ZM16.5836 12.0654C16.5741 12.709 17.0425 13.3049 17.9984 13.3049C18.3393 13.3049 18.6261 13.238 18.8842 13.0786L18.9352 12.4732C18.7249 12.6007 18.4062 12.6899 18.129 12.6899C17.7626 12.6899 17.4344 12.5306 17.342 12.1609H19.12C19.1455 12.094 19.1678 11.9347 19.1678 11.7818C19.1678 11.1031 18.7918 10.6092 18.0207 10.6092C17.2496 10.6092 16.5964 11.068 16.5868 12.0685M7.7541 12.4923C7.7541 12.2151 8.07911 12.11 8.41368 12.11H8.75463L8.70364 12.5274C8.56026 12.6421 8.30216 12.76 8.08548 12.76C7.89111 12.76 7.75728 12.6517 7.75728 12.4923M7.0276 12.5497C7.02122 12.9671 7.36217 13.3049 7.88155 13.3049C8.24799 13.3049 8.51565 13.1487 8.66859 12.9799L8.63673 13.2411H9.33774L9.50662 11.8487C9.58947 11.1604 9.36323 10.5996 8.47741 10.5996C8.11735 10.5996 7.68081 10.6825 7.44501 10.8354L7.37173 11.4121C7.56291 11.3102 7.93253 11.1827 8.27029 11.1827C8.67815 11.1827 8.82154 11.3867 8.80561 11.6001H8.37226C7.74454 11.6001 7.03078 11.8423 7.02441 12.5465M5.01697 12.6166L5.17629 11.3516C5.33243 11.2273 5.50449 11.1763 5.66063 11.1827C5.96971 11.1859 6.13859 11.4344 6.13859 11.82C6.13859 12.3203 5.8773 12.7472 5.43439 12.7472C5.29419 12.7472 5.13487 12.7026 5.01697 12.6198M4.11841 14.0919H4.83854L4.95643 13.1201C5.07114 13.2061 5.28145 13.3049 5.5491 13.3049C6.38394 13.3049 6.89058 12.5688 6.89058 11.7658C6.89058 11.0808 6.56557 10.6028 5.96015 10.6028C5.67337 10.6028 5.4089 10.6952 5.20816 10.8609L5.23365 10.6697H4.53583L4.11841 14.0887V14.0919ZM11.6861 10.6729L10.9054 12.4509L10.4976 10.6729H9.69462L10.4084 13.2507L9.99095 14.0951H10.7812L12.4636 10.6761H11.6829L11.6861 10.6729Z" fill="white"/>
</g>
<defs>
<clipPath id="clip0_1_6204">
<rect width="18.4843" height="6" fill="white" transform="translate(2.75781 9)"/>
</clipPath>
</defs>
</svg>
