<svg width="25" height="24" viewBox="0 0 25 24" fill="none" xmlns="http://www.w3.org/2000/svg">
<path d="M3.38333 11.0006C3.60742 8.80061 4.6336 6.76017 6.26606 5.26852C7.89853 3.77688 10.023 2.93844 12.2342 2.91319C14.4454 2.88793 16.5885 3.67762 18.2546 5.13159C19.9207 6.58556 20.9932 8.60203 21.2675 10.7963C21.5418 12.9905 20.9986 15.209 19.7417 17.0283C18.4847 18.8477 16.602 20.1406 14.4526 20.6604C12.3032 21.1802 10.0377 20.8905 8.08833 19.8466C6.13891 18.8027 4.64205 17.0776 3.88333 15.0006M3.38333 20.0006V15.0006H8.38333" stroke="#A0A0A0" stroke-width="2" stroke-linecap="round" stroke-linejoin="round"/>
<path d="M12.3333 18.0005C13.52 18.0005 14.6801 17.6486 15.6668 16.9893C16.6535 16.33 17.4225 15.3929 17.8766 14.2966C18.3307 13.2002 18.4496 11.9938 18.2181 10.8299C17.9865 9.66606 17.4151 8.59696 16.576 7.75785C15.7369 6.91873 14.6678 6.34729 13.5039 6.11578C12.34 5.88427 11.1336 6.00308 10.0372 6.45721C8.94089 6.91134 8.00381 7.68037 7.34453 8.66707C6.68524 9.65376 6.33334 10.8138 6.33334 12.0005L12.3333 12.0005L12.3333 18.0005Z" fill="#A0A0A0"/>
</svg>
