<svg width="25" height="25" viewBox="0 0 25 25" fill="none" xmlns="http://www.w3.org/2000/svg">
<path d="M19.8509 16.56C19.0049 18.2705 17.6327 19.6647 15.9359 20.538C14.2513 21.403 12.3306 21.6951 10.4649 21.37C8.59354 21.041 6.879 20.1148 5.57795 18.73C4.26482 17.3321 3.42875 15.5539 3.18995 13.651C2.9474 11.7437 3.31273 9.80854 4.23395 8.12098C5.14669 6.44634 6.57303 5.10904 8.30295 4.30598C10.0213 3.51014 11.9523 3.29667 13.8029 3.69798C15.6529 4.09898 17.1689 5.01098 18.4229 6.45298C18.5739 6.61298 19.1579 7.25898 19.6429 8.23398" stroke="#007BFF" stroke-width="2" stroke-linecap="round" stroke-linejoin="round"/>
<path d="M15.186 8.31297L20.226 9.21997L21.117 4.08997" stroke="#007BFF" stroke-width="2" stroke-linecap="round" stroke-linejoin="round"/>
</svg>
