<svg width="21" height="21" viewBox="0 0 21 21" fill="none" xmlns="http://www.w3.org/2000/svg">
<path d="M3.15413 3.83333V8H4.8208V4.66667H8.15413V3H3.98747C3.76645 3 3.55449 3.0878 3.39821 3.24408C3.24193 3.40036 3.15413 3.61232 3.15413 3.83333ZM18.1541 8V3.83333C18.1541 3.61232 18.0663 3.40036 17.9101 3.24408C17.7538 3.0878 17.5418 3 17.3208 3H13.1541V4.66667H16.4875V8H18.1541ZM16.4875 16.3333H13.1541V18H17.3208C17.5418 18 17.7538 17.9122 17.9101 17.7559C18.0663 17.5996 18.1541 17.3877 18.1541 17.1667V13H16.4875V16.3333ZM8.15413 18V16.3333H4.8208V13H3.15413V17.1667C3.15413 17.3877 3.24193 17.5996 3.39821 17.7559C3.55449 17.9122 3.76645 18 3.98747 18H8.15413ZM2.3208 9.66667H18.9875V11.3333H2.3208V9.66667Z" fill="#007BFF"/>
</svg>
