<svg width="20" height="20" viewBox="0 0 20 20" fill="none" xmlns="http://www.w3.org/2000/svg">
<path d="M13.125 16.25H2.5C2.16848 16.25 1.85054 16.1183 1.61612 15.8839C1.3817 15.6495 1.25 15.3315 1.25 15V5C1.25 4.66848 1.3817 4.35054 1.61612 4.11612C1.85054 3.8817 2.16848 3.75 2.5 3.75H13.125C13.4565 3.75 13.7745 3.8817 14.0089 4.11612C14.2433 4.35054 14.375 4.66848 14.375 5V7.5375L17.7625 5.11917C17.8558 5.05277 17.9655 5.01326 18.0796 5.00495C18.1938 4.99663 18.3081 5.01984 18.41 5.07203C18.5118 5.12422 18.5974 5.20339 18.6574 5.3009C18.7174 5.39842 18.7494 5.51053 18.75 5.625V14.375C18.7495 14.4895 18.7176 14.6018 18.6577 14.6994C18.5978 14.797 18.5122 14.8763 18.4103 14.9286C18.3084 14.9809 18.1941 15.0042 18.0798 14.9959C17.9656 14.9876 17.8558 14.9481 17.7625 14.8817L14.375 12.4625V15C14.375 15.3315 14.2433 15.6495 14.0089 15.8839C13.7745 16.1183 13.4565 16.25 13.125 16.25ZM2.5 5V15H13.125V11.25C13.1256 11.1355 13.1576 11.0234 13.2176 10.9259C13.2776 10.8284 13.3632 10.7492 13.465 10.697C13.5669 10.6448 13.6812 10.6216 13.7954 10.6299C13.9095 10.6383 14.0192 10.6778 14.1125 10.7442L17.5 13.1617V6.83667L14.1125 9.255C14.0192 9.3214 13.9095 9.36091 13.7954 9.36922C13.6812 9.37753 13.5669 9.35433 13.465 9.30214C13.3632 9.24995 13.2776 9.17078 13.2176 9.07326C13.1576 8.97575 13.1256 8.86364 13.125 8.74917V5H2.5Z" fill="#007BFF"/>
<path d="M8 7.5V12.5" stroke="#007BFF" stroke-linecap="round" stroke-linejoin="round"/>
<path d="M10.3333 10.5L7.99996 12.8333L5.66663 10.5" stroke="#007BFF" stroke-linecap="round" stroke-linejoin="round"/>
</svg>
